# Blender v2.83.2 OBJ File: ''
# www.blender.org
mtllib box.mtl
o Cube_Cube.001
v -0.360316 -0.079468 0.360316
v -0.360316 0.049863 0.360316
v -0.360316 -0.079468 -0.360316
v -0.360316 0.049863 -0.360316
v 0.360316 -0.079468 0.360316
v 0.360316 0.049863 0.360316
v 0.360316 -0.079468 -0.360316
v 0.360316 0.049863 -0.360316
v -0.418385 -0.079468 -0.418385
v -0.418385 -0.079468 0.418385
v -0.418385 0.049863 0.418385
v -0.418385 0.049863 -0.418385
v 0.418385 -0.079468 -0.418385
v 0.418385 0.049863 -0.418385
v 0.418385 -0.079468 0.418385
v 0.418385 0.049863 0.418385
v -0.418385 0.002587 0.418385
v -0.418385 0.002587 -0.418385
v 0.418385 0.002587 -0.418385
v 0.418385 0.002587 0.418385
v -0.503385 0.002587 0.503385
v -0.503385 0.049863 0.503385
v -0.503385 0.049863 -0.503385
v 0.503385 0.049863 -0.503385
v 0.503385 0.049863 0.503385
v -0.503385 0.002587 -0.503385
v 0.503385 0.002587 -0.503385
v 0.503385 0.002587 0.503385
vt 0.375000 0.000000
vt 0.375000 0.250000
vt 0.625000 0.250000
vt 0.625000 0.000000
vt 0.375000 0.500000
vt 0.625000 0.500000
vt 0.375000 0.750000
vt 0.625000 0.750000
vt 0.375000 1.000000
vt 0.625000 1.000000
vt 0.539773 0.250000
vt 0.539773 0.000000
vt 0.539773 0.000000
vt 0.539773 0.250000
vt 0.625000 0.750000
vt 0.625000 1.000000
vt 0.625000 1.000000
vt 0.625000 0.750000
vt 0.625000 0.000000
vt 0.625000 0.250000
vt 0.625000 0.250000
vt 0.625000 0.000000
vt 0.539773 1.000000
vt 0.539773 0.750000
vt 0.539773 0.750000
vt 0.539773 1.000000
vt 0.375000 0.750000
vt 0.375000 1.000000
vt 0.625000 0.500000
vt 0.375000 0.250000
vt 0.375000 0.500000
vt 0.375000 0.000000
vt 0.539773 0.500000
vt 0.625000 0.500000
vt 0.539773 0.500000
vn 1.0000 0.0000 0.0000
vn 0.0000 0.0000 1.0000
vn -1.0000 0.0000 0.0000
vn 0.0000 0.0000 -1.0000
vn 0.0000 -1.0000 0.0000
vn 0.0000 1.0000 -0.0000
usemtl None
s off
f 1/1/1 3/2/1 4/3/1 2/4/1
f 3/2/2 7/5/2 8/6/2 4/3/2
f 7/5/3 5/7/3 6/8/3 8/6/3
f 5/7/4 1/9/4 2/10/4 6/8/4
f 18/11/5 17/12/5 21/13/5 26/14/5
f 16/15/6 11/16/6 22/17/6 25/18/6
f 11/19/6 12/20/6 23/21/6 22/22/6
f 17/23/5 20/24/5 28/25/5 21/26/5
f 1/9/5 5/7/5 15/27/5 10/28/5
f 8/6/6 6/8/6 16/15/6 14/29/6
f 7/5/5 3/2/5 9/30/5 13/31/5
f 2/4/6 4/3/6 12/20/6 11/19/6
f 6/8/6 2/10/6 11/16/6 16/15/6
f 3/2/5 1/1/5 10/32/5 9/30/5
f 5/7/5 7/5/5 13/31/5 15/27/5
f 4/3/6 8/6/6 14/29/6 12/20/6
f 15/27/2 20/24/2 17/23/2 10/28/2
f 13/31/1 19/33/1 20/24/1 15/27/1
f 9/30/4 18/11/4 19/33/4 13/31/4
f 10/32/3 17/12/3 18/11/3 9/30/3
f 21/13/3 22/22/3 23/21/3 26/14/3
f 26/14/4 23/21/4 24/34/4 27/35/4
f 27/35/1 24/34/1 25/18/1 28/25/1
f 28/25/2 25/18/2 22/17/2 21/26/2
f 12/20/6 14/29/6 24/34/6 23/21/6
f 20/24/5 19/33/5 27/35/5 28/25/5
f 14/29/6 16/15/6 25/18/6 24/34/6
f 19/33/5 18/11/5 26/14/5 27/35/5
