# This file uses centimeters as units for non-parametric coordinates.

mtllib boxsquare.mtl
g default
v -36.031562 -7.946752 36.031572
v -36.031562 4.986305 36.031570
v -36.031562 -7.946764 -36.031564
v -36.031562 4.986294 -36.031566
v 36.031574 -7.946752 36.031572
v 36.031574 4.986305 36.031570
v 36.031574 -7.946764 -36.031564
v 36.031574 4.986294 -36.031566
v -41.838533 -7.946765 -41.838534
v -41.838533 -7.946751 41.838540
v -41.838533 4.986306 41.838538
v -41.838533 4.986293 -41.838536
v 41.838545 -7.946765 -41.838534
v 41.838545 4.986293 -41.838536
v 41.838545 -7.946751 41.838540
v 41.838545 4.986306 41.838538
v -41.838533 0.258657 41.838539
v -41.838533 0.258644 -41.838536
v 41.838545 0.258644 -41.838536
v 41.838545 0.258657 41.838539
v -50.338477 0.258659 50.338477
v -50.338477 4.986308 50.338476
v -50.338477 4.986291 -50.338478
v 50.338483 4.986291 -50.338478
v 50.338483 4.986308 50.338476
v -50.338477 0.258642 -50.338477
v 50.338483 0.258642 -50.338477
v 50.338483 0.258659 50.338477
vt 0.935895 0.450485
vt 0.410972 0.557724
vt 0.485821 0.485828
vt 0.447226 0.521470
vt 0.962841 0.038341
vt 0.521463 0.559134
vt 0.085566 0.424513
vt 0.893727 0.559078
vt 0.463898 0.459477
vt 0.616532 0.102146
vt 0.078842 0.582491
vt 0.521463 0.460059
vt 0.940657 0.939266
vt 0.447226 0.950875
vt 0.485821 0.017831
vt 0.879856 0.130442
vt 0.078842 0.889854
vt 0.962841 0.480579
vt 0.521463 0.982179
vt 0.901365 0.897099
vt 0.424515 0.418081
vt 0.548410 0.047915
vt 0.054075 0.557724
vt 0.459471 0.039753
vt 0.933742 0.064231
vt 0.410972 0.914621
vt 0.017821 0.950875
vt 0.017821 0.017821
vt 0.604449 0.367958
vt 0.386205 0.582491
vt 0.418076 0.079136
vt 0.568393 0.939323
vt 0.521463 0.017821
vt 0.940657 0.516221
vt 0.017821 0.521470
vt 0.017821 0.485818
vt 0.867773 0.396254
vt 0.386205 0.889854
vt 0.560755 0.601301
vt 0.054074 0.914621
vt 0.039744 0.044172
vt 0.550563 0.434169
vt 0.079128 0.085568
vt 0.044171 0.463896
vn 1.000000 0.000000 0.000000
vn 1.000000 0.000000 0.000000
vn 1.000000 0.000000 0.000000
vn 1.000000 0.000000 0.000000
vn 0.000000 0.000000 1.000000
vn 0.000000 0.000000 1.000000
vn 0.000000 0.000000 1.000000
vn 0.000000 0.000000 1.000000
vn -1.000000 0.000000 -0.000000
vn -1.000000 0.000000 -0.000000
vn -1.000000 0.000000 -0.000000
vn -1.000000 0.000000 -0.000000
vn 0.000000 -0.000000 -1.000000
vn 0.000000 -0.000000 -1.000000
vn 0.000000 -0.000000 -1.000000
vn 0.000000 -0.000000 -1.000000
vn 0.000000 -1.000000 0.000000
vn 0.000000 -1.000000 0.000000
vn 0.000000 -1.000000 0.000000
vn 0.000000 -1.000000 0.000000
vn 0.000000 1.000000 -0.000000
vn 0.000000 1.000000 -0.000000
vn 0.000000 1.000000 -0.000000
vn 0.000000 1.000000 -0.000000
vn 0.000000 1.000000 -0.000000
vn 0.000000 1.000000 -0.000000
vn 0.000000 1.000000 -0.000000
vn 0.000000 1.000000 -0.000000
vn 0.000000 -1.000000 0.000000
vn 0.000000 -1.000000 0.000000
vn 0.000000 -1.000000 0.000000
vn 0.000000 -1.000000 0.000000
vn 0.000000 -1.000000 0.000000
vn 0.000000 -1.000000 0.000000
vn 0.000000 -1.000000 0.000000
vn 0.000000 -1.000000 0.000000
vn 0.000000 1.000000 -0.000000
vn 0.000000 1.000000 -0.000000
vn 0.000000 1.000000 -0.000000
vn 0.000000 1.000000 -0.000000
vn 0.000000 -1.000000 0.000000
vn 0.000000 -1.000000 0.000000
vn 0.000000 -1.000000 0.000000
vn 0.000000 -1.000000 0.000000
vn 0.000000 1.000000 -0.000000
vn 0.000000 1.000000 -0.000000
vn 0.000000 1.000000 -0.000000
vn 0.000000 1.000000 -0.000000
vn 0.000000 1.000000 -0.000000
vn 0.000000 1.000000 -0.000000
vn 0.000000 1.000000 -0.000000
vn 0.000000 1.000000 -0.000000
vn 0.000000 -1.000000 0.000000
vn 0.000000 -1.000000 0.000000
vn 0.000000 -1.000000 0.000000
vn 0.000000 -1.000000 0.000000
vn 0.000000 -1.000000 0.000000
vn 0.000000 -1.000000 0.000000
vn 0.000000 -1.000000 0.000000
vn 0.000000 -1.000000 0.000000
vn 0.000000 1.000000 -0.000000
vn 0.000000 1.000000 -0.000000
vn 0.000000 1.000000 -0.000000
vn 0.000000 1.000000 -0.000000
vn 0.000000 0.000000 1.000000
vn 0.000000 0.000000 1.000000
vn 0.000000 0.000000 1.000000
vn 0.000000 0.000000 1.000000
vn 1.000000 0.000000 0.000000
vn 1.000000 0.000000 0.000000
vn 1.000000 0.000000 0.000000
vn 1.000000 0.000000 0.000000
vn 0.000000 -0.000000 -1.000000
vn 0.000000 -0.000000 -1.000000
vn 0.000000 -0.000000 -1.000000
vn 0.000000 -0.000000 -1.000000
vn -1.000000 0.000000 -0.000000
vn -1.000000 0.000000 -0.000000
vn -1.000000 0.000000 -0.000000
vn -1.000000 0.000000 -0.000000
vn -1.000000 0.000000 -0.000000
vn -1.000000 0.000000 -0.000000
vn -1.000000 0.000000 -0.000000
vn -1.000000 0.000000 -0.000000
vn 0.000000 -0.000000 -1.000000
vn 0.000000 -0.000000 -1.000000
vn 0.000000 -0.000000 -1.000000
vn 0.000000 -0.000000 -1.000000
vn 1.000000 0.000000 0.000000
vn 1.000000 0.000000 0.000000
vn 1.000000 0.000000 0.000000
vn 1.000000 0.000000 0.000000
vn 0.000000 0.000000 1.000000
vn 0.000000 0.000000 1.000000
vn 0.000000 0.000000 1.000000
vn 0.000000 0.000000 1.000000
vn 0.000000 1.000000 -0.000000
vn 0.000000 1.000000 -0.000000
vn 0.000000 1.000000 -0.000000
vn 0.000000 1.000000 -0.000000
vn 0.000000 -1.000000 0.000000
vn 0.000000 -1.000000 0.000000
vn 0.000000 -1.000000 0.000000
vn 0.000000 -1.000000 0.000000
vn 0.000000 1.000000 -0.000000
vn 0.000000 1.000000 -0.000000
vn 0.000000 1.000000 -0.000000
vn 0.000000 1.000000 -0.000000
vn 0.000000 -1.000000 0.000000
vn 0.000000 -1.000000 0.000000
vn 0.000000 -1.000000 0.000000
vn 0.000000 -1.000000 0.000000
g Cube
usemtl initialShadingGroup
f 1/25/1 3/1/2 4/37/3 2/16/4
f 3/1/5 7/42/6 8/29/7 4/37/8
f 7/42/9 5/22/10 6/10/11 8/29/12
f 5/22/13 1/25/14 2/16/15 6/10/16
f 18/31/17 17/43/18 21/41/19 26/24/20
f 16/23/21 11/40/22 22/27/23 25/35/24
f 11/40/25 12/26/26 23/14/27 22/27/28
f 17/43/29 20/7/30 28/44/31 21/41/32
f 1/25/33 5/22/34 15/33/35 10/5/36
f 8/30/37 6/11/38 16/23/39 14/2/40
f 7/42/41 3/1/42 9/18/43 13/12/44
f 2/17/45 4/38/46 12/26/47 11/40/48
f 6/11/49 2/17/50 11/40/51 16/23/52
f 3/1/53 1/25/54 10/5/55 9/18/56
f 5/22/57 7/42/58 13/12/59 15/33/60
f 4/38/61 8/30/62 14/2/63 12/26/64
f 15/34/65 20/8/66 17/39/67 10/6/68
f 13/13/69 19/20/70 20/8/71 15/34/72
f 9/19/73 18/32/74 19/20/75 13/13/76
f 10/6/77 17/39/78 18/32/79 9/19/80
f 21/41/81 22/28/82 23/15/83 26/24/84
f 26/24/85 23/15/86 24/3/87 27/9/88
f 27/9/89 24/3/90 25/36/91 28/44/92
f 28/44/93 25/36/94 22/28/95 21/41/96
f 12/26/97 14/2/98 24/4/99 23/14/100
f 20/7/101 19/21/102 27/9/103 28/44/104
f 14/2/105 16/23/106 25/35/107 24/4/108
f 19/21/109 18/31/110 26/24/111 27/9/112
